<?xml version="1.0" encoding="UTF-8" standalone="no"?>
<!DOCTYPE svg PUBLIC "-//W3C//DTD SVG 1.1//EN"
 "http://www.w3.org/Graphics/SVG/1.1/DTD/svg11.dtd">
<!-- Generated by graphviz version 9.0.0 (20230911.1827)
 -->
<!-- Title: D Pages: 1 -->
<svg width="811pt" height="188pt"
 viewBox="0.00 0.00 811.17 188.00" xmlns="http://www.w3.org/2000/svg" xmlns:xlink="http://www.w3.org/1999/xlink">
<g id="graph0" class="graph" transform="scale(1 1) rotate(0) translate(4 184)">
<title>D</title>
<polygon fill="white" stroke="none" points="-4,4 -4,-184 807.17,-184 807.17,4 -4,4"/>
<!-- node_0 -->
<g id="node1" class="node">
<title>node_0</title>
<ellipse fill="none" stroke="black" cx="341.28" cy="-162" rx="40.6" ry="18"/>
<text text-anchor="middle" x="341.28" y="-156.95" font-family="Times,serif" font-size="14.00">test_file</text>
</g>
<!-- node_1 -->
<g id="node2" class="node">
<title>node_1</title>
<ellipse fill="none" stroke="black" cx="233.28" cy="-90" rx="46.23" ry="18"/>
<text text-anchor="middle" x="233.28" y="-84.95" font-family="Times,serif" font-size="14.00">comment</text>
</g>
<!-- node_0&#45;&gt;node_1 -->
<g id="edge1" class="edge">
<title>node_0&#45;&gt;node_1</title>
<path fill="none" stroke="black" d="M318.9,-146.5C303.61,-136.59 283.11,-123.29 265.99,-112.2"/>
<polygon fill="black" stroke="black" points="267.94,-109.29 257.64,-106.79 264.13,-115.17 267.94,-109.29"/>
</g>
<!-- node_2 -->
<g id="node3" class="node">
<title>node_2</title>
<ellipse fill="none" stroke="black" cx="341.28" cy="-90" rx="44.19" ry="18"/>
<text text-anchor="middle" x="341.28" y="-84.95" font-family="Times,serif" font-size="14.00">test_case</text>
</g>
<!-- node_0&#45;&gt;node_2 -->
<g id="edge2" class="edge">
<title>node_0&#45;&gt;node_2</title>
<path fill="none" stroke="black" d="M341.28,-143.7C341.28,-136.41 341.28,-127.73 341.28,-119.54"/>
<polygon fill="black" stroke="black" points="344.78,-119.62 341.28,-109.62 337.78,-119.62 344.78,-119.62"/>
</g>
<!-- node_12 -->
<g id="node9" class="node">
<title>node_12</title>
<ellipse fill="none" stroke="black" cx="631.28" cy="-90" rx="44.19" ry="18"/>
<text text-anchor="middle" x="631.28" y="-84.95" font-family="Times,serif" font-size="14.00">test_case</text>
</g>
<!-- node_0&#45;&gt;node_12 -->
<g id="edge3" class="edge">
<title>node_0&#45;&gt;node_12</title>
<path fill="none" stroke="black" d="M376.26,-152.56C427.81,-140.11 524.37,-116.81 582.74,-102.72"/>
<polygon fill="black" stroke="black" points="583.51,-106.13 592.41,-100.38 581.87,-99.33 583.51,-106.13"/>
</g>
<!-- node_4 -->
<g id="node4" class="node">
<title>node_4</title>
<ellipse fill="none" stroke="black" cx="48.28" cy="-18" rx="48.28" ry="18"/>
<text text-anchor="middle" x="48.28" y="-12.95" font-family="Times,serif" font-size="14.00">input_line</text>
</g>
<!-- node_2&#45;&gt;node_4 -->
<g id="edge4" class="edge">
<title>node_2&#45;&gt;node_4</title>
<path fill="none" stroke="black" d="M308.09,-77.71C301.56,-75.67 294.74,-73.67 288.28,-72 208.45,-51.37 186.37,-55.62 106.28,-36 102.76,-35.14 99.14,-34.2 95.51,-33.22"/>
<polygon fill="black" stroke="black" points="96.68,-29.92 86.11,-30.61 94.81,-36.66 96.68,-29.92"/>
</g>
<!-- node_6 -->
<g id="node5" class="node">
<title>node_6</title>
<ellipse fill="none" stroke="black" cx="163.28" cy="-18" rx="48.28" ry="18"/>
<text text-anchor="middle" x="163.28" y="-12.95" font-family="Times,serif" font-size="14.00">input_line</text>
</g>
<!-- node_2&#45;&gt;node_6 -->
<g id="edge5" class="edge">
<title>node_2&#45;&gt;node_6</title>
<path fill="none" stroke="black" d="M310.28,-76.81C281.46,-65.47 238.28,-48.49 206.16,-35.86"/>
<polygon fill="black" stroke="black" points="207.73,-32.72 197.14,-32.32 205.17,-39.23 207.73,-32.72"/>
</g>
<!-- node_7 -->
<g id="node6" class="node">
<title>node_7</title>
<ellipse fill="none" stroke="black" cx="282.28" cy="-18" rx="52.89" ry="18"/>
<text text-anchor="middle" x="282.28" y="-12.95" font-family="Times,serif" font-size="14.00">output_line</text>
</g>
<!-- node_2&#45;&gt;node_7 -->
<g id="edge6" class="edge">
<title>node_2&#45;&gt;node_7</title>
<path fill="none" stroke="black" d="M327.6,-72.76C320.48,-64.32 311.61,-53.8 303.62,-44.31"/>
<polygon fill="black" stroke="black" points="306.4,-42.18 297.28,-36.79 301.04,-46.69 306.4,-42.18"/>
</g>
<!-- node_9 -->
<g id="node7" class="node">
<title>node_9</title>
<ellipse fill="none" stroke="black" cx="401.28" cy="-18" rx="48.28" ry="18"/>
<text text-anchor="middle" x="401.28" y="-12.95" font-family="Times,serif" font-size="14.00">input_line</text>
</g>
<!-- node_2&#45;&gt;node_9 -->
<g id="edge7" class="edge">
<title>node_2&#45;&gt;node_9</title>
<path fill="none" stroke="black" d="M355.2,-72.76C362.44,-64.32 371.45,-53.8 379.58,-44.31"/>
<polygon fill="black" stroke="black" points="382.19,-46.65 386.04,-36.78 376.87,-42.1 382.19,-46.65"/>
</g>
<!-- node_11 -->
<g id="node8" class="node">
<title>node_11</title>
<ellipse fill="none" stroke="black" cx="516.28" cy="-18" rx="48.28" ry="18"/>
<text text-anchor="middle" x="516.28" y="-12.95" font-family="Times,serif" font-size="14.00">input_line</text>
</g>
<!-- node_2&#45;&gt;node_11 -->
<g id="edge8" class="edge">
<title>node_2&#45;&gt;node_11</title>
<path fill="none" stroke="black" d="M372.16,-76.65C400.34,-65.38 442.24,-48.62 473.61,-36.07"/>
<polygon fill="black" stroke="black" points="474.84,-39.35 482.82,-32.38 472.24,-32.85 474.84,-39.35"/>
</g>
<!-- node_14 -->
<g id="node10" class="node">
<title>node_14</title>
<ellipse fill="none" stroke="black" cx="631.28" cy="-18" rx="48.28" ry="18"/>
<text text-anchor="middle" x="631.28" y="-12.95" font-family="Times,serif" font-size="14.00">input_line</text>
</g>
<!-- node_12&#45;&gt;node_14 -->
<g id="edge9" class="edge">
<title>node_12&#45;&gt;node_14</title>
<path fill="none" stroke="black" d="M631.28,-71.7C631.28,-64.41 631.28,-55.73 631.28,-47.54"/>
<polygon fill="black" stroke="black" points="634.78,-47.62 631.28,-37.62 627.78,-47.62 634.78,-47.62"/>
</g>
<!-- node_15 -->
<g id="node11" class="node">
<title>node_15</title>
<ellipse fill="none" stroke="black" cx="750.28" cy="-18" rx="52.89" ry="18"/>
<text text-anchor="middle" x="750.28" y="-12.95" font-family="Times,serif" font-size="14.00">output_line</text>
</g>
<!-- node_12&#45;&gt;node_15 -->
<g id="edge10" class="edge">
<title>node_12&#45;&gt;node_15</title>
<path fill="none" stroke="black" d="M655.65,-74.67C672.71,-64.63 695.78,-51.06 714.86,-39.83"/>
<polygon fill="black" stroke="black" points="716.56,-42.9 723.41,-34.81 713.01,-36.86 716.56,-42.9"/>
</g>
</g>
</svg>
